<svg id="Layer_1" data-name="Layer 1" xmlns="http://www.w3.org/2000/svg" viewBox="0 0 80.61 39.16"><defs><style>.cls-1{fill:#93969b;fill-rule:evenodd;}.cls-2{fill:#2f190d;}</style></defs><path class="cls-1" d="M9.62,18.83a14.71,14.71,0,0,0,0,9.33,7.69,7.69,0,0,1,.61,1c4.54,7.61,14.88,12.94,23,15.62,1.73.57,9.17,2.63,10.94,2.38-.43-.16-1.45-.32-2-.44-10.29-2.45-25-10.51-28.64-20.2a8.68,8.68,0,0,1,.88-8.25A11.93,11.93,0,0,1,17,15.67C19.31,13.88,25.29,11,27.71,11c-1,.44-2.13.82-3.26,1.36a19.32,19.32,0,0,0-6.09,4.44L17,19c-2.47,5.22,1.28,10,4.59,12.57,5.76,4.46,13,6.6,20.28,8,1.28.24,7,1.17,8.3,1L46.21,40c-1.35-.22-2.53-.48-3.81-.74-5.69-1.17-14.35-4.64-18.07-8.93-5.68-6.56-4-12.73,3.32-17,1.11-.64,5-2.53,6.28-2.6a18.32,18.32,0,0,0-4.75,2.89c-5.23,4.13-4.64,10.7,1.51,14.75,6.65,4.39,17.27,6,25.45,6v-.13a41.63,41.63,0,0,1-8-1.06c-6.08-1.33-14.39-4.32-17.44-10a7.57,7.57,0,0,1-.21-7.1c2.06-4,7.43-6,11.36-6.9s4.85-.65,8.15-1c-1-.35-10.64.18-12.13.38-4.45.58-6.46.56-11.33,1.54C20.87,11.21,15.16,13,11.1,17,10.49,17.61,10.12,18.26,9.62,18.83Z" transform="translate(-8.86 -8.04)"/><path class="cls-2" d="M41,23.17H38.73A.82.82,0,0,1,38.2,23a.55.55,0,0,1-.26-.48V18.27a.54.54,0,0,1,.26-.48.83.83,0,0,1,.53-.18H41v.79H39v4h2Z" transform="translate(-8.86 -8.04)"/><path class="cls-2" d="M44.48,23.17H42.22a.87.87,0,0,1-.54-.17.58.58,0,0,1-.26-.48V20.93a.59.59,0,0,1,.26-.49.84.84,0,0,1,.54-.18h1.19v-.2H41.55v-.8h2.13a.84.84,0,0,1,.54.18.59.59,0,0,1,.26.49Zm-1.07-.79V21.06h-.93v1.32Z" transform="translate(-8.86 -8.04)"/><path class="cls-2" d="M48.06,23.17H47V20.06h-.93v3.11H45V19.93a.59.59,0,0,1,.26-.49.84.84,0,0,1,.54-.18h1.46a.83.83,0,0,1,.53.18.58.58,0,0,1,.27.49Z" transform="translate(-8.86 -8.04)"/><path class="cls-2" d="M51.62,23.17H49.36a.82.82,0,0,1-.53-.17.55.55,0,0,1-.26-.48V20.93a.57.57,0,0,1,.26-.49.83.83,0,0,1,.53-.18h1.2v-.2H48.7v-.8h2.12a.84.84,0,0,1,.54.18.59.59,0,0,1,.26.49Zm-1.06-.79V21.06h-.93v1.32Z" transform="translate(-8.86 -8.04)"/><path class="cls-2" d="M55.18,23.17H52.93a.83.83,0,0,1-.54-.17.58.58,0,0,1-.26-.48V20.93a.59.59,0,0,1,.26-.49.84.84,0,0,1,.54-.18h1.19v-.2H52.26v-.8h2.13a.88.88,0,0,1,.54.18.58.58,0,0,1,.25.49Zm-1.06-.79V21.06h-.93v1.32Z" transform="translate(-8.86 -8.04)"/><path class="cls-2" d="M58.76,23.17H57.7V20.06h-.93v3.11H55.71V19.93a.57.57,0,0,1,.26-.49.83.83,0,0,1,.53-.18H58a.83.83,0,0,1,.53.18.57.57,0,0,1,.26.49Z" transform="translate(-8.86 -8.04)"/><path class="cls-2" d="M65.5,22.52a.55.55,0,0,1-.26.48.82.82,0,0,1-.53.17H61.92V17.61h2.79a.83.83,0,0,1,.53.18.57.57,0,0,1,.26.48Zm-1.06-.14v-4H63v4Z" transform="translate(-8.86 -8.04)"/><path class="cls-2" d="M70.63,19.26l-1.07,3.91h-1l-.29-1.32L68,23.17H67l-1.06-3.91H67l.62,2.29.5-2.29h.68l.5,2.29.62-2.29Z" transform="translate(-8.86 -8.04)"/><path class="cls-2" d="M74,21a.56.56,0,0,1-.27.48.81.81,0,0,1-.53.18H72v.76h1.86v.79H71.7a.87.87,0,0,1-.54-.17.58.58,0,0,1-.26-.48V19.93a.59.59,0,0,1,.26-.49.84.84,0,0,1,.54-.18h1.46a.81.81,0,0,1,.53.18.58.58,0,0,1,.27.49Zm-1.07-.14v-.76H72v.76Z" transform="translate(-8.86 -8.04)"/><path class="cls-2" d="M75.53,23.17H74.46V17.61h1.07Z" transform="translate(-8.86 -8.04)"/><path class="cls-2" d="M77.13,23.17H76.07V17.61h1.06Z" transform="translate(-8.86 -8.04)"/><path class="cls-2" d="M78.74,19H77.68V17.94h1.06Zm0,4.17H77.68V19.26h1.06Z" transform="translate(-8.86 -8.04)"/><path class="cls-2" d="M82.33,23.17H81.27V20.06h-.93v3.11H79.28V19.93a.59.59,0,0,1,.26-.49.84.84,0,0,1,.54-.18h1.46a.83.83,0,0,1,.53.18.57.57,0,0,1,.26.49Z" transform="translate(-8.86 -8.04)"/><path class="cls-2" d="M85.9,23.84a.59.59,0,0,1-.26.49.89.89,0,0,1-.54.17H83v-.79h1.86v-.54h-1.2a.82.82,0,0,1-.53-.17.55.55,0,0,1-.26-.48V19.93a.57.57,0,0,1,.26-.49.83.83,0,0,1,.53-.18H85.1a.84.84,0,0,1,.54.18.59.59,0,0,1,.26.49Zm-1.06-1.46V20.06h-.93v2.32Z" transform="translate(-8.86 -8.04)"/><path class="cls-2" d="M89.47,22.52a.58.58,0,0,1-.26.48.83.83,0,0,1-.54.17H86.42v-.79h2v-.76h-1.2a.88.88,0,0,1-.54-.18.57.57,0,0,1-.25-.48v-1a.58.58,0,0,1,.25-.49.88.88,0,0,1,.54-.18h2.26v.8h-2v.76h1.19a.84.84,0,0,1,.54.18.59.59,0,0,1,.26.49Z" transform="translate(-8.86 -8.04)"/></svg>